<?xml version="1.0" encoding="UTF-8"?>
<!-- Generated by Pixelmator Pro 3.7.1 -->
<svg width="1920" height="1920" viewBox="0 0 1920 1920" xmlns="http://www.w3.org/2000/svg">
    <path id="Rectangle" fill="#282828" fill-rule="evenodd" stroke="none" visibility="hidden" d="M 0 1920 L 1920 1920 L 1920 0 L 0 0 Z"/>
    <g id="No-Intersection-Dept">
        <path id="Path-copy-3" fill="none" stroke="#e2e5e5" stroke-width="90" stroke-linecap="round" stroke-linejoin="round" visibility="hidden" d="M 1684 960 C 1186.641724 954.124756 640.488525 508.903687 649 0"/>
        <path id="Path-copy-4" fill="none" stroke="#e2e5e5" stroke-width="90" stroke-linecap="round" stroke-linejoin="round" visibility="hidden" d="M 1692 960 C 1194.641724 965.875244 648.488525 1411.096313 657 1920"/>
        <path id="Path" fill="none" stroke="#e2e5e5" stroke-width="90" stroke-linecap="round" stroke-linejoin="round" visibility="hidden" d="M 649 0 L 649 1995"/>
        <path id="path1" fill="none" stroke="#e2e5e5" stroke-width="90" stroke-linecap="round" stroke-linejoin="round" visibility="hidden" d="M 1663 960 L 1952 960"/>
        <g id="no">
            <path id="Circle" fill="none" stroke="#b32020" stroke-width="125" stroke-linecap="round" stroke-linejoin="round" visibility="hidden" d="M 1828.878296 951.921753 C 1824.213257 471.88147 1431.281982 86.513794 951.241699 91.178955 C 471.201477 95.843994 85.833786 488.775269 90.498871 968.815552 C 95.163963 1448.855713 488.095276 1834.223511 968.135498 1829.55835 C 1448.175781 1824.893311 1833.543457 1431.962036 1828.878296 951.921753 Z"/>
            <path id="path2" fill="none" stroke="#b32020" stroke-width="145" stroke-linecap="round" stroke-linejoin="round" visibility="hidden" d="M 355 356 L 1564 1565"/>
        </g>
    </g>
    <g id="No-Pattern-Work">
        <g id="rw">
            <path id="path3" fill="#e2e5e5" fill-rule="evenodd" stroke="none" visibility="hidden" d="M 987 2499 L 1641 2499 L 1641 981 L 987 981 Z"/>
            <path id="path4" fill="#282828" fill-rule="evenodd" stroke="none" visibility="hidden" d="M 1021 1402 L 1112 1402 L 1112 1066 L 1021 1066 Z"/>
            <path id="Rectangle-copy" fill="#282828" fill-rule="evenodd" stroke="none" visibility="hidden" d="M 1144 1402 L 1235 1402 L 1235 1066 L 1144 1066 Z"/>
            <path id="Rectangle-copy-2" fill="#282828" fill-rule="evenodd" stroke="none" visibility="hidden" d="M 1268 1402 L 1359 1402 L 1359 1066 L 1268 1066 Z"/>
            <path id="Rectangle-copy-5" fill="#282828" fill-rule="evenodd" stroke="none" visibility="hidden" d="M 1301.455322 1764 L 1325.544678 1764 L 1325.544678 1538 L 1301.455322 1538 Z"/>
            <path id="Rectangle-copy-6" fill="#282828" fill-rule="evenodd" stroke="none" visibility="hidden" d="M 1301.455322 2135 L 1325.544678 2135 L 1325.544678 1909 L 1301.455322 1909 Z"/>
            <path id="Rectangle-copy-3" fill="#282828" fill-rule="evenodd" stroke="none" visibility="hidden" d="M 1391 1402 L 1482 1402 L 1482 1066 L 1391 1066 Z"/>
            <path id="Rectangle-copy-4" fill="#282828" fill-rule="evenodd" stroke="none" visibility="hidden" d="M 1515 1402 L 1606 1402 L 1606 1066 L 1515 1066 Z"/>
        </g>
        <path id="path5" fill="none" stroke="#e2e5e5" stroke-width="80" stroke-linecap="round" stroke-linejoin="round" visibility="hidden" d="M 541 2288 C 541 2288 541.392578 2295.052002 538 2256 C 534.607483 2216.947998 538 1149 538 1149"/>
        <path id="Triangle" fill="#e2e5e5" fill-rule="evenodd" stroke="#e2e5e5" stroke-width="50" stroke-linecap="round" stroke-linejoin="round" visibility="hidden" d="M 536 969 L 432 1149 L 640 1149 Z"/>
        <path id="Triangle-copy" fill="#e2e5e5" fill-rule="evenodd" stroke="#e2e5e5" stroke-width="50" stroke-linecap="round" stroke-linejoin="round" visibility="hidden" d="M 1341 809 L 1445 629 L 1237 629 Z"/>
        <path id="path6" fill="none" stroke="#e2e5e5" stroke-width="80" stroke-linecap="round" stroke-linejoin="round" visibility="hidden" d="M 1346 673 L 1346 418 L 537 415 L 537 809"/>
        <g id="g1">
            <path id="path7" fill="none" stroke="#b32020" stroke-width="125" stroke-linecap="round" stroke-linejoin="round" visibility="hidden" d="M 1828.878296 951.921753 C 1824.213257 471.88147 1431.281982 86.513794 951.241699 91.178955 C 471.201477 95.843994 85.833786 488.775269 90.498871 968.815552 C 95.163963 1448.855713 488.095276 1834.223511 968.135498 1829.55835 C 1448.175781 1824.893311 1833.543457 1431.962036 1828.878296 951.921753 Z"/>
            <path id="path8" fill="none" stroke="#b32020" stroke-width="145" stroke-linecap="round" stroke-linejoin="round" visibility="hidden" d="M 355 356 L 1564 1565"/>
        </g>
    </g>
    <g id="Gate-Hold">
        <path id="path9" fill="#e2e5e5" fill-rule="evenodd" stroke="none" visibility="hidden" d="M 669.347778 927.905212 C 608.477051 831.144165 548.917236 776.966187 496.051208 749.633911 L 496.045135 749.630737 C 427.720612 714.296143 367.401123 720.990845 325.302002 744.870972 C 210.526596 810.014404 264.289886 957.098877 335.585602 1082.779785 C 373.062073 1148.759033 407.639221 1195.347168 437.592529 1245.521973 C 557.684875 1446.359131 603.569763 1787.995972 905.664795 1787.995972 L 1395.345581 1787.927002 C 1592.390991 1787.927002 1751.682617 1624.087646 1751.682617 1426.625122 L 1751.682617 474.808716 C 1751.682617 359.618042 1623.725952 287.908447 1527.240356 352.716309 C 1504.589478 229.657349 1355.863647 174.788086 1261.171387 261.543579 C 1214.509033 104.942871 1026.099854 89.345215 951.284729 232.556763 C 895.688354 169.782593 798.867065 163.305054 734.422424 215.568237 C 746.559326 236.450439 756.501343 258.762085 763.932007 282.186157 C 815.531677 217.7323 923.398804 246.747192 923.398804 345.675659 L 923.398804 814.366333 C 923.398804 859.019653 991.242126 859.019653 991.242126 814.366333 L 991.242126 345.675659 C 991.242126 282.249512 1030.375854 202.050659 1099.185669 202.050659 C 1196.706421 202.050659 1207.887207 307.366943 1207.887207 382.251099 L 1208.094238 382.251099 L 1207.887207 814.368042 C 1207.887207 859.021606 1275.730469 859.021606 1275.730469 814.368042 L 1275.523315 382.251099 L 1275.730469 382.251099 C 1275.730469 355.9552 1286.290161 332.075562 1303.268433 314.821289 C 1362.141479 255.05249 1462.077637 298.325928 1462.077637 382.251099 L 1462.077637 474.459106 L 1464.631226 474.528198 C 1459.710571 486.401611 1461.140137 680.175537 1461.816284 771.837524 C 1461.96521 792.022217 1462.077637 807.255249 1462.077637 814.50415 C 1462.077637 859.157715 1529.921021 859.157715 1529.921021 814.50415 C 1529.921021 807.25708 1530.033447 792.026489 1530.182251 771.844727 C 1530.858521 680.187744 1532.288208 486.40625 1527.36731 474.528198 L 1529.921021 474.528198 C 1529.921021 371.761841 1683.828979 371.140015 1683.828979 474.873291 L 1683.76001 1426.54834 C 1683.76001 1586.938721 1555.252075 1720.073975 1395.269653 1720.073975 L 905.588928 1720.073975 C 658.508179 1720.073975 611.024292 1403.915039 495.557495 1210.728271 C 488.118561 1198.289063 477.579193 1182.069824 465.351471 1163.252197 C 394.195496 1053.748779 265.865997 856.259888 358.627106 803.665039 C 383.05899 789.861572 420.604462 786.755615 464.982269 809.738647 C 544.840088 851.082886 615.444946 955.922058 672.038696 1074.217529 L 672.035278 1074.226929 C 686.597595 1107.701294 737.118835 1097.41626 737.049805 1060.699707 L 737.049805 546.479004 C 719.179749 578.379272 696.234985 607.061279 669.310974 631.427002 L 669.347778 927.905212 Z M 680.714844 295.354736 C 673.399963 317.470703 669.278748 342.815552 669.278748 371.420044 L 669.294373 497.248657 C 686.707214 463.059448 696.532837 424.368896 696.546692 383.400146 C 696.557129 352.44104 690.96051 322.77063 680.714844 295.354736 Z"/>
        <path id="path10" fill="#e2e5e5" fill-rule="evenodd" stroke="none" visibility="hidden" d="M 444.965179 83.290894 C 610.601013 83.290894 745 217.771118 745 383.325806 C 745 548.868896 610.612854 683.36084 444.965179 683.36084 C 279.421967 683.36084 144.930008 548.880859 144.930008 383.325806 C 144.930008 217.782837 279.410278 83.290894 444.965179 83.290894 Z M 444.965179 157.692261 C 320.527527 157.692261 219.341217 258.785889 219.341217 383.316284 C 219.341217 507.753906 320.434784 608.940186 444.965179 608.940186 C 569.495605 608.940186 670.58905 507.846802 670.58905 383.316284 C 670.58905 258.878662 569.588379 157.692261 444.965179 157.692261 Z M 407.764282 256.459961 C 407.764282 235.90625 424.411652 219.259155 444.965179 219.259155 C 465.518555 219.259155 482.165985 235.90625 482.165985 256.459961 L 482.165985 383.592651 L 595.163635 383.592651 C 615.624084 383.592651 632.364441 400.23999 632.364441 420.793213 C 632.364441 441.346924 615.624084 457.994263 595.163635 457.994263 L 444.965179 457.994263 C 424.411652 457.994263 407.764282 441.346924 407.764282 420.793213 Z"/>
    </g>
    <g id="No-Light-Aircraft">
        <path id="path11" fill="none" stroke="#e2e5e5" stroke-width="40" visibility="hidden" d="M 1209.412231 1871.561768 L 1240.26062 1396.56897 C 1240.281372 1396.195068 1240.281372 1395.800781 1240.281372 1395.385742 L 1240.281372 1068.074219 L 1311.880127 1068.074219 C 1313.146362 1068.074219 1314.371216 1067.908203 1315.533569 1067.700684 C 1332.099609 1065.39624 1402.930054 1055.743286 1440.089233 1052.567017 C 1478.61853 1049.287109 1497.903809 1017.774597 1504.712891 995.894226 L 1562.402832 977.397827 C 1569.793213 975.05188 1574.817017 968.201477 1574.817017 960.416748 L 1574.817017 960.416748 C 1574.817017 952.673584 1569.813965 945.781372 1562.402832 943.394043 L 1504.837524 924.980652 C 1498.11145 903.038086 1478.82605 871.255493 1440.109985 867.934204 C 1403.013306 864.778687 1332.577026 855.187988 1315.616577 852.842163 C 1314.412598 852.593018 1313.167114 852.468506 1311.900757 852.468506 L 1240.302124 852.468506 L 1240.302124 524.845703 C 1240.302124 524.472046 1240.302124 524.077637 1240.281372 523.683228 L 1209.412231 48.711182 C 1208.789429 39.307129 1201.004883 32 1191.621704 32 L 1006.531982 32 C 997.605347 32 990.070007 38.580566 988.845093 47.424072 L 923.308105 522.41687 C 923.204163 523.22644 923.121216 524.036255 923.121216 524.845703 L 923.121216 854.39917 L 489.543121 903.577881 L 444.204956 667.482666 C 442.585632 659.075195 435.236938 652.992676 426.642578 652.992676 L 302.253113 652.992676 C 293.409576 652.992676 285.915497 659.448853 284.607758 668.146851 L 246.556 916.967468 C 246.431366 917.860168 246.389877 918.77356 246.389877 919.645508 C 246.389877 923.984131 247.92601 928.198303 250.811523 931.47821 L 276.283264 960.312805 L 250.894684 988.732239 C 247.365494 992.697388 245.787842 998.053284 246.556 1003.326172 L 284.628479 1252.105225 C 285.936218 1260.824097 293.430328 1267.259399 302.273834 1267.259399 L 426.6633 1267.259399 C 435.25766 1267.259399 442.606537 1261.135498 444.225677 1252.748779 L 489.480896 1016.944214 L 923.141907 1066.164307 L 923.141907 1395.385742 C 923.141907 1396.236816 923.225159 1397.004639 923.328857 1397.814453 L 988.865845 1872.848877 C 990.090576 1881.692261 997.605347 1888.252197 1006.552612 1888.252197 L 1191.642212 1888.252197 C 1201.025513 1888.272949 1208.810181 1880.924194 1209.412231 1871.561768 Z M 1022.10144 1852.546265 L 958.847961 1394.181641 L 958.847961 1050.366577 C 958.847961 1050.283569 958.827209 1050.200562 958.827209 1050.117432 C 958.806458 1041.190918 952.101013 1033.48938 942.987854 1032.472168 C 942.987854 1032.472168 477.066833 979.577515 477.066833 979.577515 C 468.306458 978.560364 460.314148 984.123779 457.926849 992.302856 C 457.926849 992.302856 457.926849 992.302856 457.926849 992.34436 C 457.802246 992.821899 457.6362 993.361633 457.511597 993.880676 C 457.511597 993.922058 457.470062 994.005127 457.470062 994.046692 L 411.903503 1231.511963 L 317.594147 1231.511963 L 283.133698 1006.170044 L 313.463135 972.187256 C 319.462433 965.461121 319.462433 955.289124 313.546112 948.500854 L 283.133698 914.08197 L 317.594147 688.657104 L 411.903503 688.657104 L 457.553101 926.516846 C 459.338501 935.671631 467.849731 941.96167 477.087585 940.902954 L 942.987854 888.029175 C 952.184265 886.970337 958.993103 879.061157 958.847961 869.968628 C 958.847961 869.927002 958.847961 869.885498 958.847961 869.843994 L 958.847961 526.091187 L 1022.10144 67.705933 L 1174.868896 67.705933 L 1204.575317 525.427002 L 1204.575317 869.90625 C 1204.575317 869.968628 1204.596313 870.051514 1204.596313 870.134644 C 1204.596313 870.217651 1204.575317 870.259155 1204.575317 870.342285 C 1204.575317 880.223633 1212.588501 888.174438 1222.428345 888.174438 L 1310.343872 888.174438 C 1326.536011 890.416382 1398.736938 900.256409 1437.058472 903.536194 C 1462.03186 905.695251 1469.961914 932.26709 1471.477295 938.577942 L 1471.477295 938.868591 C 1471.477295 947.462952 1477.539063 954.64563 1485.63501 956.3479 L 1498.422729 960.4375 L 1485.63501 964.526917 C 1477.559814 966.208496 1471.477295 973.370422 1471.477295 982.006287 C 1469.920288 988.462463 1461.969604 1014.889038 1437.058472 1017.006348 C 1398.902832 1020.244934 1326.889038 1030.105469 1310.343872 1032.368408 L 1222.428345 1032.368408 C 1212.588501 1032.368408 1204.575317 1040.4021 1204.575317 1050.242065 L 1204.596313 1050.283569 C 1204.596313 1050.325073 1204.575317 1050.325073 1204.575317 1050.366577 L 1204.575317 1394.887451 L 1174.868896 1852.567017 L 1022.10144 1852.567017 Z"/>
        <path id="path12" fill="none" stroke="#e2e5e5" stroke-width="80" stroke-linecap="round" stroke-linejoin="round" visibility="hidden" d="M 1221 793 L 1221 683"/>
        <g id="g2">
            <path id="path13" fill="none" stroke="#b32020" stroke-width="125" stroke-linecap="round" stroke-linejoin="round" visibility="hidden" d="M 1828.878296 951.921753 C 1824.213257 471.88147 1431.281982 86.513794 951.241699 91.178955 C 471.201477 95.843994 85.833786 488.775269 90.498871 968.815552 C 95.163963 1448.855713 488.095276 1834.223511 968.135498 1829.55835 C 1448.175781 1824.893311 1833.543457 1431.962036 1828.878296 951.921753 Z"/>
            <path id="path14" fill="none" stroke="#b32020" stroke-width="145" stroke-linecap="round" stroke-linejoin="round" visibility="hidden" d="M 355 356 L 1564 1565"/>
        </g>
    </g>
    <g id="Rolling-Dept">
        <g id="g3">
            <path id="path15" fill="#e2e5e5" fill-rule="evenodd" stroke="none" visibility="hidden" d="M 1474.847656 1253.469849 L 1328.560913 1253.469849 L 1328.560913 1793.605591 L 1474.847656 1793.605591 Z"/>
            <path id="path16" fill="#e2e5e5" fill-rule="evenodd" stroke="none" visibility="hidden" d="M 1277.119385 1253.469849 L 1130.832642 1253.469849 L 1130.832642 1793.605591 L 1277.119385 1793.605591 Z"/>
            <path id="path17" fill="#e2e5e5" fill-rule="evenodd" stroke="none" visibility="hidden" d="M 1077.783569 1253.469849 L 931.496826 1253.469849 L 931.496826 1793.605591 L 1077.783569 1793.605591 Z"/>
            <path id="path18" fill="#e2e5e5" fill-rule="evenodd" stroke="none" visibility="hidden" d="M 1024.002563 671.537842 L 985.277832 671.537842 L 985.277832 1034.843506 L 1024.002563 1034.843506 Z"/>
            <path id="path19" fill="#e2e5e5" fill-rule="evenodd" stroke="none" visibility="hidden" d="M 1024.002563 63.885132 L 985.277832 63.885132 L 985.277832 427.190674 L 1024.002563 427.190674 Z"/>
            <path id="Rectangle-copy-7" fill="#e2e5e5" fill-rule="evenodd" stroke="none" visibility="hidden" d="M 1024.002563 -548.590332 L 985.277832 -548.590332 L 985.277832 -185.284668 L 1024.002563 -185.284668 Z"/>
            <path id="path20" fill="#e2e5e5" fill-rule="evenodd" stroke="none" visibility="hidden" d="M 880.055298 1253.469849 L 733.768555 1253.469849 L 733.768555 1793.605591 L 880.055298 1793.605591 Z"/>
            <path id="path21" fill="#e2e5e5" fill-rule="evenodd" stroke="none" visibility="hidden" d="M 680.719482 1253.469849 L 534.432739 1253.469849 L 534.432739 1793.605591 L 680.719482 1793.605591 Z"/>
            <path id="path22" fill="#d5d5d5" fill-rule="evenodd" stroke="none" visibility="hidden" d="M 988.104492 -476.731689 L 1021.175964 -476.731689 L 1021.175964 -787 L 988.104492 -787 Z"/>
            <path id="path23" fill="#d5d5d5" fill-rule="evenodd" stroke="none" visibility="hidden" d="M 988.104492 1109.936768 L 1021.175964 1109.936768 L 1021.175964 903 L 988.104492 903 Z"/>
            <path id="Rectangle-copy-9" fill="#d5d5d5" fill-rule="evenodd" stroke="none" visibility="hidden" d="M 988.104492 1109.936768 L 1021.175964 1109.936768 L 1021.175964 903 L 988.104492 903 Z"/>
            <path id="Rectangle-copy-8" fill="#d5d5d5" fill-rule="evenodd" stroke="none" visibility="hidden" d="M 972.104492 98.602539 L 1005.175964 98.602539 L 1005.175964 -211.665771 L 972.104492 -211.665771 Z"/>
        </g>
        <path id="path24" fill="none" stroke="#e2e5e5" stroke-width="25" visibility="hidden" d="M 454.806366 -730.712402 L 454.806366 2027.380493"/>
        <path id="path25" fill="none" stroke="#e2e5e5" stroke-width="25" visibility="hidden" d="M 1564.084106 -787 L 1564.084106 828.866211"/>
        <path id="Path-copy" fill="none" stroke="#e2e5e5" stroke-width="25" visibility="hidden" d="M 1564.084106 1220.133789 L 1564.084106 2836"/>
        <path id="path26" fill="none" stroke="#e2e5e5" stroke-width="50" visibility="hidden" d="M 1005.32666 547.428223 C 1005.32666 827.493408 1172.81665 1032.050781 1498.186401 1032.050781"/>
        <path id="Triangle-copy-2" fill="#e2e5e5" fill-rule="evenodd" stroke="#e2e5e5" stroke-width="68.643425" stroke-linecap="round" stroke-linejoin="round" visibility="hidden" d="M 1005.32666 300.31189 L 862.54834 547.428223 L 1148.10498 547.428223 Z"/>
        <path id="path27" fill="none" stroke="#e2e5e5" stroke-width="50" visibility="hidden" d="M 1489.949219 1032.050781 L 2540.193604 1032.050781"/>
        <path id="path28" fill="#d5d5d5" stroke="none" visibility="hidden" d="M 723.596252 -47.252075 L 723.536499 -9.689331 C 723.536499 -0.910645 716.430054 6.196411 707.591064 6.196411 C 698.812378 6.196411 691.705261 -0.969971 691.705261 -9.749146 L 691.765015 -47.311768 C 691.765015 -56.090454 698.871521 -63.19751 707.710449 -63.19751 C 716.489136 -63.19751 723.596252 -56.031128 723.596252 -47.252075 Z M 1116.605957 -85.293457 L 1116.605957 -49.401611 C 1116.605957 -40.622925 1109.439575 -33.456299 1100.660522 -33.456299 C 1091.881836 -33.456299 1084.715088 -40.562744 1084.715088 -49.401611 L 1084.715088 -85.293457 C 1084.715088 -94.072144 1091.881348 -101.23877 1100.660522 -101.23877 C 1109.439209 -101.23877 1116.605957 -94.132324 1116.605957 -85.293457 Z M 854.559753 -351.525391 L 854.559753 -67.855835 C 854.559753 -59.077148 847.453186 -51.9104 838.614258 -51.9104 C 829.835571 -51.9104 822.668945 -59.016846 822.668945 -67.855835 L 822.668945 -351.525391 C 822.668945 -360.304199 829.77533 -367.470947 838.614258 -367.470947 C 847.392944 -367.470947 854.559753 -360.364502 854.559753 -351.525391 Z M 1084.721313 -143.164795 L 1084.721313 -351.525391 C 1084.721313 -360.304199 1091.827759 -367.470947 1100.666626 -367.470947 C 1109.44519 -367.470947 1116.612061 -360.364502 1116.612061 -351.525391 L 1116.612061 -143.164795 C 1116.612061 -134.385986 1109.505615 -127.21936 1100.666626 -127.21936 C 1091.887939 -127.21936 1084.721313 -134.325684 1084.721313 -143.164795 Z M 1247.56958 -257.824951 L 1247.509766 -17.512207 C 1247.509766 -8.733521 1240.403198 -1.566895 1231.564331 -1.566895 C 1222.785522 -1.566895 1215.619019 -8.673218 1215.619019 -17.512207 L 1215.678711 -257.824951 C 1215.678711 -266.60376 1222.785034 -273.770508 1231.624023 -273.770508 C 1240.40271 -273.770508 1247.56958 -266.663818 1247.56958 -257.824951 Z M 592.507324 -192.731689 L 592.507324 -76.041016 C 592.507324 -67.262329 585.400879 -60.095581 576.561951 -60.095581 C 567.783203 -60.095581 560.616455 -67.201904 560.616455 -76.041016 L 560.616455 -192.731689 C 560.616455 -201.510254 567.722961 -208.677246 576.561951 -208.677246 C 585.340637 -208.677246 592.507324 -201.570557 592.507324 -192.731689 Z M 723.590149 -254.30127 L 723.530396 -105.242798 C 723.530396 -96.464111 716.42395 -89.297363 707.585022 -89.297363 C 698.806274 -89.297363 691.639526 -96.403687 691.639526 -105.242798 L 691.69928 -254.30127 C 691.69928 -263.079834 698.805786 -270.246582 707.644714 -270.246582 C 716.42334 -270.246582 723.590149 -263.140137 723.590149 -254.30127 Z M 1378.407471 -196.970947 L 1378.407471 -81.474487 C 1378.407471 -72.695801 1371.241333 -65.528931 1362.462158 -65.528931 C 1353.683472 -65.528931 1346.516846 -72.635498 1346.516846 -81.474487 L 1346.516846 -196.970947 C 1346.516846 -205.749756 1353.682983 -212.916504 1362.462158 -212.916504 C 1371.240845 -212.916504 1378.407471 -205.809814 1378.407471 -196.970947 Z"/>
        <path id="path29" fill="#e2e5e5" stroke="#000000" stroke-width="1.372869" visibility="hidden" d="M 1403.917114 -288.368164 L 1382.234741 -322.408936 C 1381.796021 -323.067139 1381.247559 -323.6521 1380.589355 -324.127441 L 1138.755371 -493.531006 C 1145.739014 -506.876953 1145.190552 -533.824463 1144.349731 -578.176758 C 1144.276611 -581.467529 1141.607422 -584.100098 1138.280029 -584.100098 L 1097.328491 -584.100098 C 1094.439941 -584.100098 1091.953613 -582.05249 1091.405151 -579.237061 C 1087.785278 -561.101318 1088.626465 -548.340332 1089.869507 -529.034668 C 1089.906128 -528.449707 1089.942627 -527.864746 1089.979248 -527.279541 L 1025.444214 -570.022705 C 1025.115234 -570.242188 1025.261475 -570.205566 1024.859253 -570.351807 C 1024.566772 -570.534668 1017.290527 -574.8125 1017.327087 -591.888184 C 1017.400208 -613.497314 1015.24292 -755.909424 1015.24292 -757.229492 C 1015.3526 -795.548828 990.890991 -854.343018 979.301025 -865.828125 C 978.460022 -866.669189 975.973694 -869.155518 972.500183 -869.155518 L 970.196655 -869.155518 C 966.686523 -869.192139 964.090515 -866.705811 963.249512 -865.901367 C 957.253052 -860.014404 948.184937 -842.390869 940.689209 -822.061035 C 935.49707 -807.984131 926.794678 -780.927002 926.72168 -757.599121 C 926.685059 -756.17334 923.759949 -613.758789 923.686829 -592.145752 C 923.650269 -575.033936 916.337463 -570.829346 916.191284 -570.71875 C 915.789063 -570.57251 915.789063 -570.536133 915.460022 -570.280029 L 850.267029 -527.646484 C 850.303589 -528.085205 850.340149 -528.560547 850.340149 -528.962646 C 851.619873 -548.268311 852.424316 -561.029541 848.804504 -579.165039 C 848.256042 -581.980469 845.769653 -584.028076 842.881165 -584.028076 L 801.929626 -584.028076 C 798.638916 -584.028076 795.933167 -581.395508 795.859985 -578.104736 C 795.018982 -534.374268 794.507141 -507.572754 801.161804 -494.044189 L 558.962708 -326.437744 C 558.304565 -325.999023 557.756042 -325.413818 557.317322 -324.755615 L 535.415955 -290.86084 C 534.794373 -289.873779 534.465332 -288.740234 534.465332 -287.606689 L 534.428772 -276.088867 C 534.428772 -274.47998 535.050354 -272.944336 536.183838 -271.810791 C 537.317322 -270.67749 538.853027 -270.019287 540.461792 -270.019287 L 546.238953 -269.982666 C 548.030579 -269.909424 549.639343 -270.713867 550.772888 -272.030273 L 563.972839 -286.94873 L 859.919067 -404.973389 L 923.1745 -414.955322 L 922.808838 -288.702881 C 922.735718 -260.402832 928.000977 -209.688477 937.06842 -151.077637 C 916.373596 -136.378906 837.427429 -80.143921 834.544495 -77.547363 C 834.215393 -77.254761 833.813232 -76.925781 833.33783 -76.52356 C 829.644897 -73.525269 822.807434 -67.967529 817.871704 -55.645264 C 811.948425 -40.837158 817.762085 -27.966675 817.981384 -27.418213 C 819.005249 -25.224365 821.162415 -23.908081 823.466003 -23.908081 C 824.087585 -23.908081 824.709167 -24.0177 825.33075 -24.200562 L 952.425659 -65.444092 C 952.498779 -65.151611 952.571899 -64.82251 952.64502 -64.49353 C 959.592163 -32.792725 962.151428 -29.940674 967.746094 -29.940674 L 970.049561 -29.940674 L 970.122742 -29.940674 C 975.68042 -29.940674 978.276428 -32.865845 985.369812 -64.42041 C 985.442932 -64.749512 985.516052 -65.151733 985.589172 -65.480835 L 1112.83374 -24.199829 C 1113.455322 -24.016968 1114.076904 -23.907227 1114.698486 -23.907227 C 1117.002075 -23.907227 1119.195923 -25.223633 1120.183228 -27.417358 C 1120.439087 -27.965942 1126.216187 -40.836426 1120.292847 -55.644531 C 1115.356689 -67.966431 1108.519409 -73.524658 1104.82666 -76.522705 C 1104.351318 -76.888428 1103.949219 -77.217407 1103.620117 -77.546631 C 1100.731567 -80.106079 1022.557556 -135.793213 1001.386353 -150.820313 C 1010.783203 -209.395508 1016.34137 -260.111816 1016.414368 -288.408203 L 1016.780029 -414.585693 L 1096.416016 -400.984131 L 1375.251587 -284.63501 L 1388.377563 -269.643555 C 1389.510986 -268.327148 1391.192993 -267.595947 1392.911499 -267.559326 L 1398.688599 -267.522705 L 1398.72522 -267.522705 C 1402.05249 -267.522705 1404.758179 -270.228516 1404.7948 -273.555664 L 1404.831421 -285.07373 C 1404.831421 -286.243652 1404.502319 -287.377197 1403.880737 -288.364502 Z"/>
    </g>
    <path id="path30" fill="none" stroke="#e2e5e5" stroke-width="50" stroke-linecap="round" stroke-linejoin="round" d="M 527 352 L 993 352"/>
    <path id="path31" fill="none" stroke="#e2e5e5" stroke-width="50" stroke-linecap="round" stroke-linejoin="round" d="M 527 457 L 993 457"/>
    <path id="Path-copy-2" fill="none" stroke="#e2e5e5" stroke-width="50" stroke-linecap="round" stroke-linejoin="round" d="M 527 566 L 993 566"/>
    <path id="path32" fill="none" stroke="#e2e5e5" stroke-width="50" stroke-linecap="round" stroke-linejoin="round" d="M 527 669 L 737 669"/>
    <path id="Path-copy-5" fill="none" stroke="#e2e5e5" stroke-width="50" stroke-linecap="round" stroke-linejoin="round" d="M 527 777 L 647 777"/>
    <path id="Path-copy-6" fill="none" stroke="#e2e5e5" stroke-width="50" stroke-linecap="round" stroke-linejoin="round" d="M 1232 777 L 1352 777"/>
    <path id="path33" fill="none" stroke="#e2e5e5" stroke-width="50" stroke-linecap="round" stroke-linejoin="round" d="M 1096 669 L 1368 669"/>
    <g id="FPL-Required">
        <path id="path34" fill="#e2e5e5" fill-rule="evenodd" stroke="none" d="M 1118.199219 137.069824 C 1117.978027 137.100708 1117.75708 137.132935 1117.536499 137.166748 L 476.687653 137.166748 C 391.99115 137.166748 322.198853 206.580078 322.198853 291.276611 L 322.198853 1629.640381 C 322.198853 1714.336182 391.99115 1784.128662 476.687653 1784.128662 L 1384.886719 1784.128662 C 1469.582642 1784.128662 1539.28064 1714.336182 1539.28064 1629.640381 L 1539.28064 555.505615 C 1539.19873 554.809204 1539.101685 554.114624 1538.989502 553.422363 C 1538.872925 550.686035 1538.524414 547.964355 1537.947754 545.286865 C 1537.686401 543.981201 1537.371216 542.68689 1537.003174 541.407471 C 1536.017822 538.12207 1534.686401 534.950684 1533.03125 531.946411 C 1532.785278 531.533936 1532.533325 531.125122 1532.275269 530.719849 C 1530.246338 527.278564 1527.799561 524.101318 1524.990723 521.260498 L 1155.278931 151.165039 C 1152.539551 148.480103 1149.490845 146.130005 1146.197144 144.164307 C 1145.573608 143.80249 1144.942139 143.454712 1144.303223 143.12085 C 1136.342285 138.687256 1127.292236 136.588867 1118.192627 137.066772 Z M 476.689148 234.133301 L 1072.694336 234.133301 L 1072.694336 449.357422 C 1072.694336 534.053711 1142.486694 603.845581 1227.183228 603.845581 L 1442.407471 603.845581 L 1442.407471 1629.637695 C 1442.407471 1662.341309 1417.591431 1687.251465 1384.888184 1687.251465 L 476.689148 1687.251465 C 443.985748 1687.251465 419.07486 1662.341309 419.07486 1629.637695 L 419.07486 291.274292 C 419.07486 258.570801 443.985748 234.133301 476.689148 234.133301 Z M 1169.568848 302.721313 L 1373.724731 506.876587 L 1227.183228 506.876587 C 1194.479736 506.876587 1169.568848 482.061035 1169.568848 449.357422 Z"/>
        <path id="Shape" fill="#e2e5e5" fill-rule="evenodd" stroke="#e2e5e5" stroke-width="50" stroke-linejoin="round" d="M 964.381653 1486.303101 C 1008.940491 1424.381104 1143.806763 1234.964111 1180.682617 1163.304932 C 1202.447388 1121.015625 1214.817261 1072.598145 1214.817261 1021.171021 C 1214.817261 856.058472 1087.381592 722 930.411316 722 C 773.441406 722 646.005798 856.058472 646.005798 1021.171021 C 646.005798 1072.598145 658.374329 1121.016113 680.139099 1163.304932 C 717.02356 1234.978149 851.935242 1424.456787 896.462585 1486.334473 C 904.488586 1497.518433 917.065613 1504.10791 930.411316 1504.10791 C 943.756042 1504.10791 956.338257 1497.516235 964.381653 1486.303101 Z M 930.410706 1447.178589 C 882.043091 1379.851563 758.413147 1205.988281 723.686096 1138.50708 C 723.685791 1138.50708 723.685791 1138.506836 723.685425 1138.50647 C 705.718811 1103.596924 695.524109 1063.623779 695.524109 1021.171021 C 695.524109 884.806152 800.771729 774.089111 930.411682 774.089111 C 1060.05127 774.089111 1165.29895 884.806152 1165.29895 1021.171021 C 1165.29895 1063.624268 1155.102905 1103.596924 1137.13623 1138.50647 C 1137.135864 1138.506836 1137.135498 1138.50708 1137.135498 1138.507568 C 1102.409912 1205.98877 978.778564 1379.851563 930.410706 1447.178589 Z"/>
        <path id="path35" fill="none" stroke="#e2e5e5" stroke-width="50" stroke-linejoin="round" d="M 996 1025 C 996 989.101501 966.898499 960 931 960 C 895.101501 960 866 989.101501 866 1025 C 866 1060.898438 895.101501 1090 931 1090 C 966.898499 1090 996 1060.898438 996 1025 Z"/>
    </g>
</svg>
