<?xml version="1.0" encoding="UTF-8"?>
<!-- Generated by Pixelmator Pro 3.7.1 -->
<svg width="1920" height="1920" viewBox="0 0 1920 1920" xmlns="http://www.w3.org/2000/svg">
    <path id="Rectangle" fill="#282828" fill-rule="evenodd" stroke="none" visibility="hidden" d="M 0 1920 L 1920 1920 L 1920 0 L 0 0 Z"/>
    <g id="No-Intersection-Dept">
        <path id="Path-copy-3" fill="none" stroke="#e2e5e5" stroke-width="90" stroke-linecap="round" stroke-linejoin="round" d="M 1684 960 C 1186.641724 954.124756 640.488525 508.903687 649 0"/>
        <path id="Path-copy-4" fill="none" stroke="#e2e5e5" stroke-width="90" stroke-linecap="round" stroke-linejoin="round" d="M 1692 960 C 1194.641724 965.875244 648.488525 1411.096313 657 1920"/>
        <path id="Path" fill="none" stroke="#e2e5e5" stroke-width="90" stroke-linecap="round" stroke-linejoin="round" d="M 649 0 L 649 1995"/>
        <path id="path1" fill="none" stroke="#e2e5e5" stroke-width="90" stroke-linecap="round" stroke-linejoin="round" d="M 1663 960 L 1952 960"/>
        <g id="no">
            <path id="Circle" fill="none" stroke="#b32020" stroke-width="125" stroke-linecap="round" stroke-linejoin="round" d="M 1828.878296 951.921753 C 1824.213257 471.88147 1431.281982 86.513794 951.241699 91.178955 C 471.201477 95.843994 85.833786 488.775269 90.498871 968.815552 C 95.163963 1448.855713 488.095276 1834.223511 968.135498 1829.55835 C 1448.175781 1824.893311 1833.543457 1431.962036 1828.878296 951.921753 Z"/>
            <path id="path2" fill="none" stroke="#b32020" stroke-width="145" stroke-linecap="round" stroke-linejoin="round" d="M 355 356 L 1564 1565"/>
        </g>
    </g>
    <g id="No-Pattern-Work">
        <g id="rw">
            <path id="path3" fill="#e2e5e5" fill-rule="evenodd" stroke="none" visibility="hidden" d="M 987 2499 L 1641 2499 L 1641 981 L 987 981 Z"/>
            <path id="path4" fill="#282828" fill-rule="evenodd" stroke="none" visibility="hidden" d="M 1021 1402 L 1112 1402 L 1112 1066 L 1021 1066 Z"/>
            <path id="Rectangle-copy" fill="#282828" fill-rule="evenodd" stroke="none" visibility="hidden" d="M 1144 1402 L 1235 1402 L 1235 1066 L 1144 1066 Z"/>
            <path id="Rectangle-copy-2" fill="#282828" fill-rule="evenodd" stroke="none" visibility="hidden" d="M 1268 1402 L 1359 1402 L 1359 1066 L 1268 1066 Z"/>
            <path id="Rectangle-copy-5" fill="#282828" fill-rule="evenodd" stroke="none" visibility="hidden" d="M 1301.455322 1764 L 1325.544678 1764 L 1325.544678 1538 L 1301.455322 1538 Z"/>
            <path id="Rectangle-copy-6" fill="#282828" fill-rule="evenodd" stroke="none" visibility="hidden" d="M 1301.455322 2135 L 1325.544678 2135 L 1325.544678 1909 L 1301.455322 1909 Z"/>
            <path id="Rectangle-copy-3" fill="#282828" fill-rule="evenodd" stroke="none" visibility="hidden" d="M 1391 1402 L 1482 1402 L 1482 1066 L 1391 1066 Z"/>
            <path id="Rectangle-copy-4" fill="#282828" fill-rule="evenodd" stroke="none" visibility="hidden" d="M 1515 1402 L 1606 1402 L 1606 1066 L 1515 1066 Z"/>
        </g>
        <path id="path5" fill="none" stroke="#e2e5e5" stroke-width="80" stroke-linecap="round" stroke-linejoin="round" visibility="hidden" d="M 541 2288 C 541 2288 541.392578 2295.052002 538 2256 C 534.607483 2216.947998 538 1149 538 1149"/>
        <path id="Triangle" fill="#e2e5e5" fill-rule="evenodd" stroke="#e2e5e5" stroke-width="50" stroke-linecap="round" stroke-linejoin="round" visibility="hidden" d="M 536 969 L 432 1149 L 640 1149 Z"/>
        <path id="Triangle-copy" fill="#e2e5e5" fill-rule="evenodd" stroke="#e2e5e5" stroke-width="50" stroke-linecap="round" stroke-linejoin="round" visibility="hidden" d="M 1341 809 L 1445 629 L 1237 629 Z"/>
        <path id="path6" fill="none" stroke="#e2e5e5" stroke-width="80" stroke-linecap="round" stroke-linejoin="round" visibility="hidden" d="M 1346 673 L 1346 418 L 537 415 L 537 809"/>
        <g id="g1">
            <path id="path7" fill="none" stroke="#b32020" stroke-width="125" stroke-linecap="round" stroke-linejoin="round" visibility="hidden" d="M 1828.878296 951.921753 C 1824.213257 471.88147 1431.281982 86.513794 951.241699 91.178955 C 471.201477 95.843994 85.833786 488.775269 90.498871 968.815552 C 95.163963 1448.855713 488.095276 1834.223511 968.135498 1829.55835 C 1448.175781 1824.893311 1833.543457 1431.962036 1828.878296 951.921753 Z"/>
            <path id="path8" fill="none" stroke="#b32020" stroke-width="145" stroke-linecap="round" stroke-linejoin="round" visibility="hidden" d="M 355 356 L 1564 1565"/>
        </g>
    </g>
    <g id="Gate-Hold">
        <path id="path9" fill="#e2e5e5" fill-rule="evenodd" stroke="none" visibility="hidden" d="M 672.038696 1074.217529 C 615.444946 955.922058 544.840088 851.082886 464.982269 809.738647 C 420.604462 786.755615 383.05899 789.861572 358.627106 803.665039 C 249.925568 865.297974 444.829651 1125.9021 495.557495 1210.728271 C 611.024292 1403.915039 658.508179 1720.073975 905.588928 1720.073975 L 1395.269653 1720.073975 C 1555.252075 1720.073975 1683.76001 1586.938721 1683.76001 1426.54834 L 1683.828979 474.873291 C 1683.828979 371.140015 1529.921021 371.761841 1529.921021 474.528198 L 1527.36731 474.528198 C 1533.371704 489.021606 1529.921021 774.34375 1529.921021 814.50415 C 1529.921021 859.157715 1462.077637 859.157715 1462.077637 814.50415 C 1462.077637 774.336792 1458.626953 489.016235 1464.631226 474.528198 L 1462.077637 474.459106 L 1462.077637 382.251099 C 1462.077637 298.325928 1362.141479 255.05249 1303.268433 314.821289 C 1286.290161 332.075562 1275.730469 355.9552 1275.730469 382.251099 L 1275.523315 382.251099 L 1275.730469 814.368042 C 1275.730469 859.021606 1207.887207 859.021606 1207.887207 814.368042 L 1208.094238 382.251099 L 1207.887207 382.251099 C 1207.887207 307.366943 1196.706421 202.050659 1099.185669 202.050659 C 1030.375854 202.050659 991.242126 282.249512 991.242126 345.675659 L 991.242126 814.366333 C 991.242126 859.019653 923.398804 859.019653 923.398804 814.366333 L 923.398804 345.675659 C 923.398804 215.646606 737.049805 206.398926 737.049805 371.418579 L 737.049805 1060.699707 C 737.118835 1097.41626 686.597595 1107.701294 672.035278 1074.226929 Z M 496.045135 749.630737 C 548.912659 776.962036 608.474731 831.140503 669.347778 927.905212 L 669.278748 371.420044 C 669.278748 175.477173 862.65979 132.489868 951.284729 232.556763 C 1026.099854 89.345215 1214.509033 104.942871 1261.171387 261.543579 C 1355.863647 174.788086 1504.589478 229.657349 1527.240356 352.716309 C 1623.725952 287.908447 1751.682617 359.618042 1751.682617 474.808716 L 1751.682617 1426.625122 C 1751.682617 1624.087646 1592.390991 1787.927002 1395.345581 1787.927002 L 905.664795 1787.995972 C 603.569763 1787.995972 557.684875 1446.359131 437.592529 1245.521973 C 407.639221 1195.347168 373.062073 1148.759033 335.585602 1082.779785 C 264.289886 957.098877 210.526596 810.014404 325.302002 744.870972 C 367.402374 720.990112 427.724182 714.295776 496.051575 749.633179 Z"/>
        <path id="path10" fill="#e2e5e5" fill-rule="evenodd" stroke="none" visibility="hidden" d="M 371.965118 134.439819 C 485.073456 134.439819 576.851013 226.272827 576.851013 339.325806 C 576.851013 452.37085 485.081573 544.211914 371.965118 544.211914 C 258.920044 544.211914 167.07901 452.379028 167.07901 339.325806 C 167.07901 226.280884 258.912018 134.439819 371.965118 134.439819 Z M 371.965118 185.246704 C 286.989929 185.246704 217.892456 254.280762 217.892456 339.319336 C 217.892456 424.294556 286.926605 493.391968 371.965118 493.391968 C 457.003693 493.391968 526.03772 424.35791 526.03772 339.319336 C 526.03772 254.344238 457.067017 185.246704 371.965118 185.246704 Z M 346.561615 252.692505 C 346.561615 238.656982 357.929657 227.289063 371.965118 227.289063 C 386.000488 227.289063 397.368591 238.656982 397.368591 252.692505 L 397.368591 339.508057 L 474.531708 339.508057 C 488.503601 339.508057 499.93515 350.876099 499.93515 364.911377 C 499.93515 378.946899 488.503601 390.314941 474.531708 390.314941 L 371.965118 390.314941 C 357.929657 390.314941 346.561615 378.946899 346.561615 364.911377 Z"/>
    </g>
    <g id="No-Light-Aircraft">
        <path id="path11" fill="none" stroke="#e2e5e5" stroke-width="35" visibility="hidden" d="M 1149.755981 1689.60376 L 1174.445801 1309.437988 C 1174.462402 1309.138672 1174.462402 1308.823242 1174.462402 1308.490967 L 1174.462402 1046.523682 L 1231.767334 1046.523682 C 1232.780762 1046.523682 1233.760986 1046.390625 1234.691406 1046.224609 C 1247.950195 1044.380249 1304.640137 1036.654297 1334.380859 1034.112305 C 1365.218262 1031.487061 1380.653442 1006.265686 1386.103149 988.75354 L 1432.275879 973.949707 C 1438.190918 972.072144 1442.211792 966.589294 1442.211792 960.358704 L 1442.211792 960.358704 C 1442.211792 954.161377 1438.20752 948.645142 1432.275879 946.734436 L 1386.202881 931.997009 C 1380.81958 914.43512 1365.384277 888.997559 1334.397461 886.339233 C 1304.706787 883.813721 1248.332275 876.137695 1234.757813 874.260254 C 1233.794189 874.060791 1232.797363 873.961182 1231.783813 873.961182 L 1174.479004 873.961182 L 1174.479004 611.744629 C 1174.479004 611.445557 1174.479004 611.129883 1174.462402 610.814209 L 1149.755981 230.665039 C 1149.257568 223.138428 1143.026978 217.290039 1135.51709 217.290039 L 987.37854 217.290039 C 980.233948 217.290039 974.202942 222.556885 973.222595 229.634888 L 920.769348 609.800659 C 920.686157 610.448608 920.619812 611.09668 920.619812 611.744629 L 920.619812 875.506348 L 573.600708 914.867065 L 537.313782 725.90564 C 536.017761 719.176636 530.136169 714.308472 523.257568 714.308472 L 423.70105 714.308472 C 416.623047 714.308472 410.625061 719.475708 409.5784 726.437256 L 379.12326 925.583618 C 379.023499 926.298096 378.990295 927.029114 378.990295 927.72699 C 378.990295 931.199463 380.219757 934.572327 382.529205 937.197449 L 402.915802 960.275574 L 382.595764 983.021362 C 379.771149 986.194885 378.508453 990.481506 379.12326 994.701721 L 409.595001 1193.814819 C 410.641663 1200.793091 416.639648 1205.943604 423.717651 1205.943604 L 523.274109 1205.943604 C 530.15271 1205.943604 536.034485 1201.042236 537.330383 1194.329834 L 573.550903 1005.601074 L 920.636353 1044.995117 L 920.636353 1308.490967 C 920.636353 1309.172119 920.702942 1309.786743 920.78595 1310.434814 L 973.239197 1690.633911 C 974.219421 1697.711792 980.233948 1702.962158 987.39502 1702.962158 L 1135.533569 1702.962158 C 1143.043579 1702.97876 1149.27417 1697.097168 1149.755981 1689.60376 Z M 999.839722 1674.384521 L 949.21405 1307.527222 L 949.21405 1032.351074 C 949.21405 1032.284668 949.197449 1032.218262 949.197449 1032.151611 C 949.180847 1025.007324 943.814087 1018.843201 936.520264 1018.029053 C 936.520264 1018.029053 563.615173 975.694275 563.615173 975.694275 C 556.603699 974.880127 550.20697 979.332886 548.296265 985.87915 C 548.296265 985.87915 548.296265 985.87915 548.296265 985.912354 C 548.196533 986.294556 548.06366 986.726563 547.963928 987.141907 C 547.963928 987.17511 547.930664 987.241577 547.930664 987.274841 L 511.460968 1177.332764 L 435.979431 1177.332764 L 408.398621 996.977905 L 432.673126 969.779358 C 437.474731 964.396057 437.474731 956.254822 432.739532 950.821716 L 408.398621 923.27417 L 435.979431 742.852905 L 511.460968 742.852905 L 547.997131 933.226563 C 549.426086 940.553711 556.238159 945.588013 563.631775 944.740662 L 936.520264 902.422485 C 943.880676 901.575073 949.330261 895.244873 949.21405 887.967529 C 949.21405 887.934204 949.21405 887.901001 949.21405 887.867798 L 949.21405 612.741455 L 999.839722 245.867676 L 1122.108765 245.867676 L 1145.884644 612.209839 L 1145.884644 887.917603 C 1145.884644 887.967529 1145.901489 888.033936 1145.901489 888.100464 C 1145.901489 888.16687 1145.884644 888.200073 1145.884644 888.266602 C 1145.884644 896.175293 1152.298096 902.538818 1160.173584 902.538818 L 1230.53772 902.538818 C 1243.497314 904.33313 1301.284058 912.20874 1331.9552 914.83374 C 1351.942871 916.561768 1358.289795 937.828857 1359.502686 942.879761 L 1359.502686 943.112366 C 1359.502686 949.990967 1364.354248 955.739746 1370.833984 957.102173 L 1381.068726 960.375305 L 1370.833984 963.648376 C 1364.37085 964.994202 1359.502686 970.726379 1359.502686 977.638184 C 1358.25647 982.80542 1351.893066 1003.956238 1331.9552 1005.650879 C 1301.41687 1008.242859 1243.779785 1016.134888 1230.53772 1017.945984 L 1160.173584 1017.945984 C 1152.298096 1017.945984 1145.884644 1024.375977 1145.884644 1032.251465 L 1145.901489 1032.284668 C 1145.901489 1032.317871 1145.884644 1032.317871 1145.884644 1032.351074 L 1145.884644 1308.092163 L 1122.108765 1674.401123 L 999.839722 1674.401123 Z"/>
        <g id="g2">
            <path id="path12" fill="none" stroke="#b32020" stroke-width="125" stroke-linecap="round" stroke-linejoin="round" visibility="hidden" d="M 1828.878296 951.921753 C 1824.213257 471.88147 1431.281982 86.513794 951.241699 91.178955 C 471.201477 95.843994 85.833786 488.775269 90.498871 968.815552 C 95.163963 1448.855713 488.095276 1834.223511 968.135498 1829.55835 C 1448.175781 1824.893311 1833.543457 1431.962036 1828.878296 951.921753 Z"/>
            <path id="path13" fill="none" stroke="#b32020" stroke-width="145" stroke-linecap="round" stroke-linejoin="round" visibility="hidden" d="M 355 356 L 1564 1565"/>
        </g>
    </g>
    <g id="Rolling-Dept">
        <g id="g3">
            <path id="path14" fill="#e2e5e5" fill-rule="evenodd" stroke="none" visibility="hidden" d="M 1474.847656 1253.469849 L 1328.560913 1253.469849 L 1328.560913 1793.605591 L 1474.847656 1793.605591 Z"/>
            <path id="path15" fill="#e2e5e5" fill-rule="evenodd" stroke="none" visibility="hidden" d="M 1277.119385 1253.469849 L 1130.832642 1253.469849 L 1130.832642 1793.605591 L 1277.119385 1793.605591 Z"/>
            <path id="path16" fill="#e2e5e5" fill-rule="evenodd" stroke="none" visibility="hidden" d="M 1077.783569 1253.469849 L 931.496826 1253.469849 L 931.496826 1793.605591 L 1077.783569 1793.605591 Z"/>
            <path id="path17" fill="#e2e5e5" fill-rule="evenodd" stroke="none" visibility="hidden" d="M 1024.002563 671.537842 L 985.277832 671.537842 L 985.277832 1034.843506 L 1024.002563 1034.843506 Z"/>
            <path id="path18" fill="#e2e5e5" fill-rule="evenodd" stroke="none" visibility="hidden" d="M 1024.002563 63.885132 L 985.277832 63.885132 L 985.277832 427.190674 L 1024.002563 427.190674 Z"/>
            <path id="Rectangle-copy-7" fill="#e2e5e5" fill-rule="evenodd" stroke="none" visibility="hidden" d="M 1024.002563 -548.590332 L 985.277832 -548.590332 L 985.277832 -185.284668 L 1024.002563 -185.284668 Z"/>
            <path id="path19" fill="#e2e5e5" fill-rule="evenodd" stroke="none" visibility="hidden" d="M 880.055298 1253.469849 L 733.768555 1253.469849 L 733.768555 1793.605591 L 880.055298 1793.605591 Z"/>
            <path id="path20" fill="#e2e5e5" fill-rule="evenodd" stroke="none" visibility="hidden" d="M 680.719482 1253.469849 L 534.432739 1253.469849 L 534.432739 1793.605591 L 680.719482 1793.605591 Z"/>
            <path id="path21" fill="#d5d5d5" fill-rule="evenodd" stroke="none" visibility="hidden" d="M 988.104492 -476.731689 L 1021.175964 -476.731689 L 1021.175964 -787 L 988.104492 -787 Z"/>
            <path id="path22" fill="#d5d5d5" fill-rule="evenodd" stroke="none" visibility="hidden" d="M 988.104492 1109.936768 L 1021.175964 1109.936768 L 1021.175964 903 L 988.104492 903 Z"/>
            <path id="Rectangle-copy-9" fill="#d5d5d5" fill-rule="evenodd" stroke="none" visibility="hidden" d="M 988.104492 1109.936768 L 1021.175964 1109.936768 L 1021.175964 903 L 988.104492 903 Z"/>
            <path id="Rectangle-copy-8" fill="#d5d5d5" fill-rule="evenodd" stroke="none" visibility="hidden" d="M 972.104492 98.602539 L 1005.175964 98.602539 L 1005.175964 -211.665771 L 972.104492 -211.665771 Z"/>
        </g>
        <path id="path23" fill="none" stroke="#e2e5e5" stroke-width="25" visibility="hidden" d="M 454.806366 -730.712402 L 454.806366 2027.380493"/>
        <path id="path24" fill="none" stroke="#e2e5e5" stroke-width="25" visibility="hidden" d="M 1564.084106 -787 L 1564.084106 828.866211"/>
        <path id="Path-copy" fill="none" stroke="#e2e5e5" stroke-width="25" visibility="hidden" d="M 1564.084106 1220.133789 L 1564.084106 2836"/>
        <path id="path25" fill="none" stroke="#e2e5e5" stroke-width="50" visibility="hidden" d="M 1005.32666 547.428223 C 1005.32666 827.493408 1172.81665 1032.050781 1498.186401 1032.050781"/>
        <path id="Triangle-copy-2" fill="#e2e5e5" fill-rule="evenodd" stroke="#e2e5e5" stroke-width="68.643425" stroke-linecap="round" stroke-linejoin="round" visibility="hidden" d="M 1005.32666 300.31189 L 862.54834 547.428223 L 1148.10498 547.428223 Z"/>
        <path id="path26" fill="none" stroke="#e2e5e5" stroke-width="50" visibility="hidden" d="M 1489.949219 1032.050781 L 2540.193604 1032.050781"/>
        <path id="path27" fill="#d5d5d5" stroke="none" visibility="hidden" d="M 723.596252 -47.252075 L 723.536499 -9.689331 C 723.536499 -0.910645 716.430054 6.196411 707.591064 6.196411 C 698.812378 6.196411 691.705261 -0.969971 691.705261 -9.749146 L 691.765015 -47.311768 C 691.765015 -56.090454 698.871521 -63.19751 707.710449 -63.19751 C 716.489136 -63.19751 723.596252 -56.031128 723.596252 -47.252075 Z M 1116.605957 -85.293457 L 1116.605957 -49.401611 C 1116.605957 -40.622925 1109.439575 -33.456299 1100.660522 -33.456299 C 1091.881836 -33.456299 1084.715088 -40.562744 1084.715088 -49.401611 L 1084.715088 -85.293457 C 1084.715088 -94.072144 1091.881348 -101.23877 1100.660522 -101.23877 C 1109.439209 -101.23877 1116.605957 -94.132324 1116.605957 -85.293457 Z M 854.559753 -351.525391 L 854.559753 -67.855835 C 854.559753 -59.077148 847.453186 -51.9104 838.614258 -51.9104 C 829.835571 -51.9104 822.668945 -59.016846 822.668945 -67.855835 L 822.668945 -351.525391 C 822.668945 -360.304199 829.77533 -367.470947 838.614258 -367.470947 C 847.392944 -367.470947 854.559753 -360.364502 854.559753 -351.525391 Z M 1084.721313 -143.164795 L 1084.721313 -351.525391 C 1084.721313 -360.304199 1091.827759 -367.470947 1100.666626 -367.470947 C 1109.44519 -367.470947 1116.612061 -360.364502 1116.612061 -351.525391 L 1116.612061 -143.164795 C 1116.612061 -134.385986 1109.505615 -127.21936 1100.666626 -127.21936 C 1091.887939 -127.21936 1084.721313 -134.325684 1084.721313 -143.164795 Z M 1247.56958 -257.824951 L 1247.509766 -17.512207 C 1247.509766 -8.733521 1240.403198 -1.566895 1231.564331 -1.566895 C 1222.785522 -1.566895 1215.619019 -8.673218 1215.619019 -17.512207 L 1215.678711 -257.824951 C 1215.678711 -266.60376 1222.785034 -273.770508 1231.624023 -273.770508 C 1240.40271 -273.770508 1247.56958 -266.663818 1247.56958 -257.824951 Z M 592.507324 -192.731689 L 592.507324 -76.041016 C 592.507324 -67.262329 585.400879 -60.095581 576.561951 -60.095581 C 567.783203 -60.095581 560.616455 -67.201904 560.616455 -76.041016 L 560.616455 -192.731689 C 560.616455 -201.510254 567.722961 -208.677246 576.561951 -208.677246 C 585.340637 -208.677246 592.507324 -201.570557 592.507324 -192.731689 Z M 723.590149 -254.30127 L 723.530396 -105.242798 C 723.530396 -96.464111 716.42395 -89.297363 707.585022 -89.297363 C 698.806274 -89.297363 691.639526 -96.403687 691.639526 -105.242798 L 691.69928 -254.30127 C 691.69928 -263.079834 698.805786 -270.246582 707.644714 -270.246582 C 716.42334 -270.246582 723.590149 -263.140137 723.590149 -254.30127 Z M 1378.407471 -196.970947 L 1378.407471 -81.474487 C 1378.407471 -72.695801 1371.241333 -65.528931 1362.462158 -65.528931 C 1353.683472 -65.528931 1346.516846 -72.635498 1346.516846 -81.474487 L 1346.516846 -196.970947 C 1346.516846 -205.749756 1353.682983 -212.916504 1362.462158 -212.916504 C 1371.240845 -212.916504 1378.407471 -205.809814 1378.407471 -196.970947 Z"/>
        <path id="path28" fill="#e2e5e5" stroke="#000000" stroke-width="1.372869" visibility="hidden" d="M 1403.917114 -288.368164 L 1382.234741 -322.408936 C 1381.796021 -323.067139 1381.247559 -323.6521 1380.589355 -324.127441 L 1138.755371 -493.531006 C 1145.739014 -506.876953 1145.190552 -533.824463 1144.349731 -578.176758 C 1144.276611 -581.467529 1141.607422 -584.100098 1138.280029 -584.100098 L 1097.328491 -584.100098 C 1094.439941 -584.100098 1091.953613 -582.05249 1091.405151 -579.237061 C 1087.785278 -561.101318 1088.626465 -548.340332 1089.869507 -529.034668 C 1089.906128 -528.449707 1089.942627 -527.864746 1089.979248 -527.279541 L 1025.444214 -570.022705 C 1025.115234 -570.242188 1025.261475 -570.205566 1024.859253 -570.351807 C 1024.566772 -570.534668 1017.290527 -574.8125 1017.327087 -591.888184 C 1017.400208 -613.497314 1015.24292 -755.909424 1015.24292 -757.229492 C 1015.3526 -795.548828 990.890991 -854.343018 979.301025 -865.828125 C 978.460022 -866.669189 975.973694 -869.155518 972.500183 -869.155518 L 970.196655 -869.155518 C 966.686523 -869.192139 964.090515 -866.705811 963.249512 -865.901367 C 957.253052 -860.014404 948.184937 -842.390869 940.689209 -822.061035 C 935.49707 -807.984131 926.794678 -780.927002 926.72168 -757.599121 C 926.685059 -756.17334 923.759949 -613.758789 923.686829 -592.145752 C 923.650269 -575.033936 916.337463 -570.829346 916.191284 -570.71875 C 915.789063 -570.57251 915.789063 -570.536133 915.460022 -570.280029 L 850.267029 -527.646484 C 850.303589 -528.085205 850.340149 -528.560547 850.340149 -528.962646 C 851.619873 -548.268311 852.424316 -561.029541 848.804504 -579.165039 C 848.256042 -581.980469 845.769653 -584.028076 842.881165 -584.028076 L 801.929626 -584.028076 C 798.638916 -584.028076 795.933167 -581.395508 795.859985 -578.104736 C 795.018982 -534.374268 794.507141 -507.572754 801.161804 -494.044189 L 558.962708 -326.437744 C 558.304565 -325.999023 557.756042 -325.413818 557.317322 -324.755615 L 535.415955 -290.86084 C 534.794373 -289.873779 534.465332 -288.740234 534.465332 -287.606689 L 534.428772 -276.088867 C 534.428772 -274.47998 535.050354 -272.944336 536.183838 -271.810791 C 537.317322 -270.67749 538.853027 -270.019287 540.461792 -270.019287 L 546.238953 -269.982666 C 548.030579 -269.909424 549.639343 -270.713867 550.772888 -272.030273 L 563.972839 -286.94873 L 859.919067 -404.973389 L 923.1745 -414.955322 L 922.808838 -288.702881 C 922.735718 -260.402832 928.000977 -209.688477 937.06842 -151.077637 C 916.373596 -136.378906 837.427429 -80.143921 834.544495 -77.547363 C 834.215393 -77.254761 833.813232 -76.925781 833.33783 -76.52356 C 829.644897 -73.525269 822.807434 -67.967529 817.871704 -55.645264 C 811.948425 -40.837158 817.762085 -27.966675 817.981384 -27.418213 C 819.005249 -25.224365 821.162415 -23.908081 823.466003 -23.908081 C 824.087585 -23.908081 824.709167 -24.0177 825.33075 -24.200562 L 952.425659 -65.444092 C 952.498779 -65.151611 952.571899 -64.82251 952.64502 -64.49353 C 959.592163 -32.792725 962.151428 -29.940674 967.746094 -29.940674 L 970.049561 -29.940674 L 970.122742 -29.940674 C 975.68042 -29.940674 978.276428 -32.865845 985.369812 -64.42041 C 985.442932 -64.749512 985.516052 -65.151733 985.589172 -65.480835 L 1112.83374 -24.199829 C 1113.455322 -24.016968 1114.076904 -23.907227 1114.698486 -23.907227 C 1117.002075 -23.907227 1119.195923 -25.223633 1120.183228 -27.417358 C 1120.439087 -27.965942 1126.216187 -40.836426 1120.292847 -55.644531 C 1115.356689 -67.966431 1108.519409 -73.524658 1104.82666 -76.522705 C 1104.351318 -76.888428 1103.949219 -77.217407 1103.620117 -77.546631 C 1100.731567 -80.106079 1022.557556 -135.793213 1001.386353 -150.820313 C 1010.783203 -209.395508 1016.34137 -260.111816 1016.414368 -288.408203 L 1016.780029 -414.585693 L 1096.416016 -400.984131 L 1375.251587 -284.63501 L 1388.377563 -269.643555 C 1389.510986 -268.327148 1391.192993 -267.595947 1392.911499 -267.559326 L 1398.688599 -267.522705 L 1398.72522 -267.522705 C 1402.05249 -267.522705 1404.758179 -270.228516 1404.7948 -273.555664 L 1404.831421 -285.07373 C 1404.831421 -286.243652 1404.502319 -287.377197 1403.880737 -288.364502 Z"/>
    </g>
    <g id="Rolling-Dept-copy">
        <g id="g4">
            <path id="path29" fill="#e2e5e5" fill-rule="evenodd" stroke="none" visibility="hidden" d="M 1474.847656 1253.469849 L 1328.560913 1253.469849 L 1328.560913 1793.605591 L 1474.847656 1793.605591 Z"/>
            <path id="path30" fill="#e2e5e5" fill-rule="evenodd" stroke="none" visibility="hidden" d="M 1277.119385 1253.469849 L 1130.832642 1253.469849 L 1130.832642 1793.605591 L 1277.119385 1793.605591 Z"/>
            <path id="path31" fill="#e2e5e5" fill-rule="evenodd" stroke="none" visibility="hidden" d="M 1077.783569 1253.469849 L 931.496826 1253.469849 L 931.496826 1793.605591 L 1077.783569 1793.605591 Z"/>
            <path id="path32" fill="#e2e5e5" fill-rule="evenodd" stroke="none" visibility="hidden" d="M 1024.002563 671.537842 L 985.277832 671.537842 L 985.277832 1034.843506 L 1024.002563 1034.843506 Z"/>
            <path id="path33" fill="#e2e5e5" fill-rule="evenodd" stroke="none" visibility="hidden" d="M 1024.002563 63.885132 L 985.277832 63.885132 L 985.277832 427.190674 L 1024.002563 427.190674 Z"/>
            <path id="path34" fill="#e2e5e5" fill-rule="evenodd" stroke="none" visibility="hidden" d="M 1024.002563 -548.590332 L 985.277832 -548.590332 L 985.277832 -185.284668 L 1024.002563 -185.284668 Z"/>
            <path id="path35" fill="#e2e5e5" fill-rule="evenodd" stroke="none" visibility="hidden" d="M 880.055298 1253.469849 L 733.768555 1253.469849 L 733.768555 1793.605591 L 880.055298 1793.605591 Z"/>
            <path id="path36" fill="#e2e5e5" fill-rule="evenodd" stroke="none" visibility="hidden" d="M 680.719482 1253.469849 L 534.432739 1253.469849 L 534.432739 1793.605591 L 680.719482 1793.605591 Z"/>
            <path id="path37" fill="#d5d5d5" fill-rule="evenodd" stroke="none" visibility="hidden" d="M 988.104492 -476.731689 L 1021.175964 -476.731689 L 1021.175964 -787 L 988.104492 -787 Z"/>
            <path id="path38" fill="#d5d5d5" fill-rule="evenodd" stroke="none" visibility="hidden" d="M 988.104492 1109.936768 L 1021.175964 1109.936768 L 1021.175964 903 L 988.104492 903 Z"/>
            <path id="path39" fill="#d5d5d5" fill-rule="evenodd" stroke="none" visibility="hidden" d="M 988.104492 1109.936768 L 1021.175964 1109.936768 L 1021.175964 903 L 988.104492 903 Z"/>
            <path id="path40" fill="#d5d5d5" fill-rule="evenodd" stroke="none" visibility="hidden" d="M 972.104492 98.602539 L 1005.175964 98.602539 L 1005.175964 -211.665771 L 972.104492 -211.665771 Z"/>
        </g>
        <path id="path41" fill="none" stroke="#e2e5e5" stroke-width="25" visibility="hidden" d="M 454.806366 -730.712402 L 454.806366 2027.380493"/>
        <path id="path42" fill="none" stroke="#e2e5e5" stroke-width="25" visibility="hidden" d="M 1564.084106 -787 L 1564.084106 828.866211"/>
        <path id="path43" fill="none" stroke="#e2e5e5" stroke-width="25" visibility="hidden" d="M 1564.084106 1220.133789 L 1564.084106 2836"/>
        <path id="path44" fill="none" stroke="#e2e5e5" stroke-width="50" visibility="hidden" d="M 1005.32666 547.428223 C 1005.32666 827.493408 1172.81665 1032.050781 1498.186401 1032.050781"/>
        <path id="path45" fill="#e2e5e5" fill-rule="evenodd" stroke="#e2e5e5" stroke-width="68.643425" stroke-linecap="round" stroke-linejoin="round" visibility="hidden" d="M 1005.32666 300.31189 L 862.54834 547.428223 L 1148.10498 547.428223 Z"/>
        <path id="path46" fill="none" stroke="#e2e5e5" stroke-width="50" visibility="hidden" d="M 1489.949219 1032.050781 L 2540.193604 1032.050781"/>
        <path id="path47" fill="#d5d5d5" stroke="none" visibility="hidden" d="M 723.596252 -47.252075 L 723.536499 -9.689331 C 723.536499 -0.910645 716.430054 6.196411 707.591064 6.196411 C 698.812378 6.196411 691.705261 -0.969971 691.705261 -9.749146 L 691.765015 -47.311768 C 691.765015 -56.090454 698.871521 -63.19751 707.710449 -63.19751 C 716.489136 -63.19751 723.596252 -56.031128 723.596252 -47.252075 Z M 1116.605957 -85.293457 L 1116.605957 -49.401611 C 1116.605957 -40.622925 1109.439575 -33.456299 1100.660522 -33.456299 C 1091.881836 -33.456299 1084.715088 -40.562744 1084.715088 -49.401611 L 1084.715088 -85.293457 C 1084.715088 -94.072144 1091.881348 -101.23877 1100.660522 -101.23877 C 1109.439209 -101.23877 1116.605957 -94.132324 1116.605957 -85.293457 Z M 854.559753 -351.525391 L 854.559753 -67.855835 C 854.559753 -59.077148 847.453186 -51.9104 838.614258 -51.9104 C 829.835571 -51.9104 822.668945 -59.016846 822.668945 -67.855835 L 822.668945 -351.525391 C 822.668945 -360.304199 829.77533 -367.470947 838.614258 -367.470947 C 847.392944 -367.470947 854.559753 -360.364502 854.559753 -351.525391 Z M 1084.721313 -143.164795 L 1084.721313 -351.525391 C 1084.721313 -360.304199 1091.827759 -367.470947 1100.666626 -367.470947 C 1109.44519 -367.470947 1116.612061 -360.364502 1116.612061 -351.525391 L 1116.612061 -143.164795 C 1116.612061 -134.385986 1109.505615 -127.21936 1100.666626 -127.21936 C 1091.887939 -127.21936 1084.721313 -134.325684 1084.721313 -143.164795 Z M 1247.56958 -257.824951 L 1247.509766 -17.512207 C 1247.509766 -8.733521 1240.403198 -1.566895 1231.564331 -1.566895 C 1222.785522 -1.566895 1215.619019 -8.673218 1215.619019 -17.512207 L 1215.678711 -257.824951 C 1215.678711 -266.60376 1222.785034 -273.770508 1231.624023 -273.770508 C 1240.40271 -273.770508 1247.56958 -266.663818 1247.56958 -257.824951 Z M 592.507324 -192.731689 L 592.507324 -76.041016 C 592.507324 -67.262329 585.400879 -60.095581 576.561951 -60.095581 C 567.783203 -60.095581 560.616455 -67.201904 560.616455 -76.041016 L 560.616455 -192.731689 C 560.616455 -201.510254 567.722961 -208.677246 576.561951 -208.677246 C 585.340637 -208.677246 592.507324 -201.570557 592.507324 -192.731689 Z M 723.590149 -254.30127 L 723.530396 -105.242798 C 723.530396 -96.464111 716.42395 -89.297363 707.585022 -89.297363 C 698.806274 -89.297363 691.639526 -96.403687 691.639526 -105.242798 L 691.69928 -254.30127 C 691.69928 -263.079834 698.805786 -270.246582 707.644714 -270.246582 C 716.42334 -270.246582 723.590149 -263.140137 723.590149 -254.30127 Z M 1378.407471 -196.970947 L 1378.407471 -81.474487 C 1378.407471 -72.695801 1371.241333 -65.528931 1362.462158 -65.528931 C 1353.683472 -65.528931 1346.516846 -72.635498 1346.516846 -81.474487 L 1346.516846 -196.970947 C 1346.516846 -205.749756 1353.682983 -212.916504 1362.462158 -212.916504 C 1371.240845 -212.916504 1378.407471 -205.809814 1378.407471 -196.970947 Z"/>
        <path id="path48" fill="#e2e5e5" stroke="#000000" stroke-width="1.372869" visibility="hidden" d="M 1403.917114 -288.368164 L 1382.234741 -322.408936 C 1381.796021 -323.067139 1381.247559 -323.6521 1380.589355 -324.127441 L 1138.755371 -493.531006 C 1145.739014 -506.876953 1145.190552 -533.824463 1144.349731 -578.176758 C 1144.276611 -581.467529 1141.607422 -584.100098 1138.280029 -584.100098 L 1097.328491 -584.100098 C 1094.439941 -584.100098 1091.953613 -582.05249 1091.405151 -579.237061 C 1087.785278 -561.101318 1088.626465 -548.340332 1089.869507 -529.034668 C 1089.906128 -528.449707 1089.942627 -527.864746 1089.979248 -527.279541 L 1025.444214 -570.022705 C 1025.115234 -570.242188 1025.261475 -570.205566 1024.859253 -570.351807 C 1024.566772 -570.534668 1017.290527 -574.8125 1017.327087 -591.888184 C 1017.400208 -613.497314 1015.24292 -755.909424 1015.24292 -757.229492 C 1015.3526 -795.548828 990.890991 -854.343018 979.301025 -865.828125 C 978.460022 -866.669189 975.973694 -869.155518 972.500183 -869.155518 L 970.196655 -869.155518 C 966.686523 -869.192139 964.090515 -866.705811 963.249512 -865.901367 C 957.253052 -860.014404 948.184937 -842.390869 940.689209 -822.061035 C 935.49707 -807.984131 926.794678 -780.927002 926.72168 -757.599121 C 926.685059 -756.17334 923.759949 -613.758789 923.686829 -592.145752 C 923.650269 -575.033936 916.337463 -570.829346 916.191284 -570.71875 C 915.789063 -570.57251 915.789063 -570.536133 915.460022 -570.280029 L 850.267029 -527.646484 C 850.303589 -528.085205 850.340149 -528.560547 850.340149 -528.962646 C 851.619873 -548.268311 852.424316 -561.029541 848.804504 -579.165039 C 848.256042 -581.980469 845.769653 -584.028076 842.881165 -584.028076 L 801.929626 -584.028076 C 798.638916 -584.028076 795.933167 -581.395508 795.859985 -578.104736 C 795.018982 -534.374268 794.507141 -507.572754 801.161804 -494.044189 L 558.962708 -326.437744 C 558.304565 -325.999023 557.756042 -325.413818 557.317322 -324.755615 L 535.415955 -290.86084 C 534.794373 -289.873779 534.465332 -288.740234 534.465332 -287.606689 L 534.428772 -276.088867 C 534.428772 -274.47998 535.050354 -272.944336 536.183838 -271.810791 C 537.317322 -270.67749 538.853027 -270.019287 540.461792 -270.019287 L 546.238953 -269.982666 C 548.030579 -269.909424 549.639343 -270.713867 550.772888 -272.030273 L 563.972839 -286.94873 L 859.919067 -404.973389 L 923.1745 -414.955322 L 922.808838 -288.702881 C 922.735718 -260.402832 928.000977 -209.688477 937.06842 -151.077637 C 916.373596 -136.378906 837.427429 -80.143921 834.544495 -77.547363 C 834.215393 -77.254761 833.813232 -76.925781 833.33783 -76.52356 C 829.644897 -73.525269 822.807434 -67.967529 817.871704 -55.645264 C 811.948425 -40.837158 817.762085 -27.966675 817.981384 -27.418213 C 819.005249 -25.224365 821.162415 -23.908081 823.466003 -23.908081 C 824.087585 -23.908081 824.709167 -24.0177 825.33075 -24.200562 L 952.425659 -65.444092 C 952.498779 -65.151611 952.571899 -64.82251 952.64502 -64.49353 C 959.592163 -32.792725 962.151428 -29.940674 967.746094 -29.940674 L 970.049561 -29.940674 L 970.122742 -29.940674 C 975.68042 -29.940674 978.276428 -32.865845 985.369812 -64.42041 C 985.442932 -64.749512 985.516052 -65.151733 985.589172 -65.480835 L 1112.83374 -24.199829 C 1113.455322 -24.016968 1114.076904 -23.907227 1114.698486 -23.907227 C 1117.002075 -23.907227 1119.195923 -25.223633 1120.183228 -27.417358 C 1120.439087 -27.965942 1126.216187 -40.836426 1120.292847 -55.644531 C 1115.356689 -67.966431 1108.519409 -73.524658 1104.82666 -76.522705 C 1104.351318 -76.888428 1103.949219 -77.217407 1103.620117 -77.546631 C 1100.731567 -80.106079 1022.557556 -135.793213 1001.386353 -150.820313 C 1010.783203 -209.395508 1016.34137 -260.111816 1016.414368 -288.408203 L 1016.780029 -414.585693 L 1096.416016 -400.984131 L 1375.251587 -284.63501 L 1388.377563 -269.643555 C 1389.510986 -268.327148 1391.192993 -267.595947 1392.911499 -267.559326 L 1398.688599 -267.522705 L 1398.72522 -267.522705 C 1402.05249 -267.522705 1404.758179 -270.228516 1404.7948 -273.555664 L 1404.831421 -285.07373 C 1404.831421 -286.243652 1404.502319 -287.377197 1403.880737 -288.364502 Z"/>
    </g>
    <g id="noun-document-76658">
        <g id="Group">
            <path id="path49" fill="#000000" stroke="none" visibility="hidden" d="M 837.184814 648.775879 L 837.184814 648.775879 C 841.461731 648.775879 845.738586 648.775879 850.015503 648.775879 C 946.958252 654.478271 1026.793579 735.739136 1029.644775 834.107666 C 1031.070435 885.430298 1013.96283 933.901672 979.747742 972.393616 C 936.978821 1019.439453 909.891907 1076.4646 898.486877 1139.192139 L 774.457153 1139.192139 C 764.477722 1076.4646 735.965149 1018.013733 693.196289 970.968018 C 661.832397 935.327271 643.299255 889.707031 643.299255 841.235718 C 643.299255 735.739136 730.262634 648.775879 837.184814 648.775879 L 837.184814 648.775879 Z M 837.184814 577.494385 C 691.77063 577.494385 573.44342 695.821533 573.44342 841.235718 C 573.44342 909.665894 599.104736 970.968018 641.873596 1018.013733 C 686.068115 1067.910767 710.303833 1132.063965 710.303833 1199.068726 L 710.303833 1200.494385 C 710.303833 1206.196777 714.580688 1209.048096 718.857605 1209.048096 L 955.512085 1209.048096 C 961.214539 1209.048096 964.065796 1204.77124 964.065796 1200.494385 L 964.065796 1199.068726 C 964.065796 1133.489746 986.875854 1067.910767 1032.495972 1019.439453 C 1078.116211 969.542419 1103.777466 903.963379 1100.92627 831.256348 C 1095.223755 697.247192 988.301514 586.048096 854.292358 578.919922 C 848.589905 577.494385 842.887329 577.494385 837.184814 577.494385 L 837.184814 577.494385 Z"/>
            <path id="path50" fill="#000000" stroke="none" visibility="hidden" d="M 932.701965 1497.025269 C 924.148193 1497.025269 914.168823 1494.17395 907.040649 1487.045776 L 716.006348 1294.585815 C 701.750061 1280.32959 701.750061 1257.519531 716.006348 1244.688721 C 730.262634 1230.432495 753.072693 1230.432495 765.90332 1244.688721 L 958.363281 1435.723145 C 972.619568 1449.979492 972.619568 1472.789429 958.363281 1485.620117 C 951.235168 1494.17395 942.681396 1497.025269 932.701965 1497.025269 Z"/>
            <path id="path51" fill="#000000" stroke="none" visibility="hidden" d="M 932.701965 1357.313477 C 924.148193 1357.313477 914.168823 1354.46228 907.040649 1347.334229 L 855.718018 1296.011475 C 841.461731 1281.755127 841.461731 1258.945068 855.718018 1246.11438 C 869.974304 1231.858154 892.784363 1231.858154 905.615051 1246.11438 L 956.937683 1297.437134 C 971.19397 1311.693359 971.19397 1334.503418 956.937683 1347.334229 C 951.235168 1353.036621 942.681396 1357.313477 932.701965 1357.313477 Z"/>
            <path id="path52" fill="#000000" stroke="none" visibility="hidden" d="M 790.139038 1499.876465 C 781.585266 1499.876465 771.605896 1497.025269 764.477722 1489.897095 L 713.15509 1438.574341 C 698.898804 1424.318115 698.898804 1401.508057 713.15509 1388.677246 C 727.411377 1374.421021 750.221436 1374.421021 763.052124 1388.677246 L 814.374756 1440 C 828.631042 1454.256348 828.631042 1477.066406 814.374756 1489.897095 C 808.672241 1495.599487 800.118469 1499.876465 790.139038 1499.876465 Z"/>
            <path id="path53" fill="#000000" stroke="none" visibility="hidden" d="M 1491.548706 698.672852 C 1492.974243 682.990845 1487.271729 668.734497 1475.866699 657.32959 L 1262.022339 454.890137 C 1253.468628 446.336426 1240.637939 442.05957 1229.232788 442.05957 L 1229.232788 442.05957 L 1229.232788 442.05957 L 801.544067 442.05957 L 801.544067 533.299805 L 872.825562 533.299805 L 872.825562 513.341064 L 1180.761475 513.341064 L 1180.761475 741.441772 L 1420.267212 741.441772 L 1420.267212 1321.672852 L 1021.091003 1321.672852 L 1021.091003 1392.954224 L 1491.548706 1392.954224 L 1491.548706 698.672852 L 1491.548706 698.672852 Z M 1252.042847 670.160278 L 1252.042847 543.279297 L 1387.477661 670.160278 L 1252.042847 670.160278 Z"/>
            <path id="path54" fill="#000000" stroke="none" visibility="hidden" d="M 1126.587524 1055.080078 L 1224.956055 1055.080078 L 1224.956055 1126.361572 L 1126.587524 1126.361572 Z"/>
            <path id="path55" fill="#000000" stroke="none" visibility="hidden" d="M 1106.628784 1173.407349 L 1306.216797 1173.407349 L 1306.216797 1244.688721 L 1106.628784 1244.688721 Z"/>
            <path id="path56" fill="#000000" stroke="none" visibility="hidden" d="M 555.532227 507.565674 L 645.325928 597.219727 L 594.958435 647.665649 L 505.164764 558.011475 Z"/>
            <path id="path57" fill="#000000" stroke="none" visibility="hidden" d="M 403.793518 802.743774 L 530.674561 802.743774 L 530.674561 874.025146 L 403.793518 874.025146 Z"/>
            <path id="path58" fill="#000000" stroke="none" visibility="hidden" d="M 717.398743 419.734009 L 762.225769 538.431152 L 695.541992 563.61499 L 650.714966 444.917725 Z"/>
            <path id="path59" fill="#000000" stroke="none" visibility="hidden" d="M 450.977417 638.563599 L 568.050537 687.476196 L 540.571533 753.247559 L 423.498444 704.335083 Z"/>
            <path id="path60" fill="#000000" stroke="none" visibility="hidden" d="M 403.793518 802.743774 L 530.674561 802.743774 L 530.674561 874.025146 L 403.793518 874.025146 Z"/>
        </g>
    </g>
</svg>
