<?xml version="1.0" encoding="UTF-8"?>
<!-- Generated by Pixelmator Pro 3.7.1 -->
<svg width="94" height="94" viewBox="0 0 94 94" xmlns="http://www.w3.org/2000/svg">
    <path id="Path" fill="#64c299" stroke="none" d="M 38.599998 46.880005 C 38.598991 50.102402 40.41608 53.049652 43.295605 54.496101 C 46.175133 55.942551 49.624329 55.640671 52.208805 53.716003 C 54.793285 51.791328 56.070766 48.573235 55.509998 45.400002 L 90 39.32 C 91.232033 39.10791 92.317101 38.385132 92.987541 37.329956 C 93.657974 36.274773 93.851364 34.985443 93.519997 33.779999 C 88.962547 17.656944 76.349884 5.063217 60.220001 0.529999 C 59.021866 0.198082 57.739403 0.384911 56.685764 1.044861 C 55.632122 1.704811 54.904293 2.777145 54.68 4 L 48.599998 38.490005 C 46.117504 38.037659 43.562515 38.714386 41.62941 40.336258 C 39.696301 41.958145 38.585907 44.356674 38.599998 46.880005 Z"/>
    <path id="path1" fill="#64c299" stroke="none" d="M 47.119999 93.830002 C 71.182892 93.862526 91.361122 75.667976 93.809998 51.729996 C 93.9459 50.489807 93.541496 49.251106 92.699997 48.330002 C 91.865547 47.402756 90.677437 46.872284 89.43 46.869995 C 89.168457 46.870575 88.907463 46.893997 88.650002 46.940002 C 86.676987 47.300156 85.19207 48.940948 85.029999 50.940002 C 82.935295 70.873779 65.775711 85.789612 45.744431 85.088646 C 25.713154 84.387688 9.638171 68.308868 8.941986 48.27742 C 8.245802 28.245979 23.16572 11.089951 43.099998 9 C 45.434872 8.778275 47.187729 6.767799 47.089203 4.424492 C 46.990677 2.081192 45.075245 0.224945 42.73 0.199997 L 42.27 0.199997 C 17.452591 2.822418 -0.976708 24.401497 0.316767 49.323532 C 1.610243 74.245567 22.174452 93.80085 47.130001 93.839996 Z"/>
    <path id="path2" fill="#64c299" stroke="none" d="M 40.740002 28.620003 C 42.211971 28.088326 43.282478 26.803719 43.540001 25.260002 C 43.761368 23.964676 43.39489 22.638016 42.540001 21.639999 C 41.719006 20.645859 40.499302 20.067139 39.209999 20.059998 C 38.72654 20.059601 38.246475 20.140739 37.790001 20.300003 C 25.375219 24.641174 17.614216 36.992691 19.089479 50.061584 C 20.564745 63.130486 30.883926 73.441048 43.954052 74.905388 C 57.024181 76.369728 69.369209 68.598404 73.699997 56.18 C 74.163589 54.866768 73.954376 53.409729 73.139999 52.279999 C 72.310555 51.107491 70.966209 50.407387 69.529999 50.400002 C 69.268463 50.400772 69.007492 50.424194 68.75 50.470001 C 67.206284 50.727524 65.921677 51.798027 65.389999 53.270004 C 62.411247 61.794395 53.932579 67.125244 44.959354 66.115494 C 35.98613 65.105736 28.904263 58.023869 27.894508 49.050644 C 26.884754 40.077423 32.215603 31.598755 40.740002 28.620003 Z"/>
</svg>
