<?xml version="1.0" encoding="UTF-8"?>
<!-- Generated by Pixelmator Pro 3.8 -->
<svg width="152" height="152" viewBox="0 0 152 152" xmlns="http://www.w3.org/2000/svg">
    <path id="Circle" fill="#d8d8d9" fill-rule="evenodd" stroke="none" visibility="hidden" d="M 111.661758 76.456955 C 111.661758 56.540329 95.516144 40.394707 75.599518 40.394707 C 55.682888 40.394707 39.53727 56.540329 39.53727 76.456955 C 39.53727 96.373581 55.682888 112.519196 75.599518 112.519196 C 95.516144 112.519196 111.661758 96.373581 111.661758 76.456955 Z"/>
    <path id="Path" fill="#d8d8d9" fill-rule="evenodd" stroke="none" d="M 42 62 L 90 110 C 90 110 66.369377 119.32692 50 102 C 33.630623 84.673088 42 62 42 62 Z"/>
    <path id="Path-copy-2" fill="#d8d8d9" fill-rule="evenodd" stroke="none" d="M 109 91 L 61 43 C 61 43 84.630623 33.67308 101 51 C 117.369377 68.326912 109 91 109 91 Z"/>
    <text id="A" visibility="hidden" xml:space="preserve" x="111" y="144" font-family="B612" font-size="50" font-weight="700" fill="#d8d8d9" letter-spacing="-4">A</text>
    <path id="path1" fill="#d8d8d9" fill-rule="evenodd" stroke="#d8d8d9" stroke-width="12" stroke-linecap="round" stroke-linejoin="round" d="M 115 116 L 35 36"/>
</svg>
